<?xml version="1.0" encoding="utf-8"?>
<!-- Generator: Adobe Illustrator 16.0.0, SVG Export Plug-In . SVG Version: 6.00 Build 0)  -->
<!DOCTYPE svg PUBLIC "-//W3C//DTD SVG 1.1//EN" "http://www.w3.org/Graphics/SVG/1.1/DTD/svg11.dtd">
<svg version="1.1" id="Layer_1" xmlns="http://www.w3.org/2000/svg" xmlns:xlink="http://www.w3.org/1999/xlink" x="0px" y="0px"
	 width="48px" height="48px" viewBox="0 0 48 48" enable-background="new 0 0 48 48" xml:space="preserve">
<g>
	<path d="M23.3,47c-0.1,0-0.2,0-0.3-0.1L1.9,38.7c-0.4-0.101-0.6-0.5-0.6-0.9v-36c0-0.3,0.2-0.6,0.4-0.8C2,0.8,2.3,0.8,2.6,0.9
		l20.7,9.4l22.2-9.1c0.3-0.1,0.6-0.1,0.9,0.1C46.7,1.5,46.8,1.8,46.8,2.1v35.5c0,0.4-0.2,0.7-0.6,0.9L23.6,47
		C23.5,47,23.4,47,23.3,47z M3.1,37.2L23.3,45L44.9,36.9V3.5l-21.3,8.7c-0.2,0.1-0.5,0.1-0.7,0l-19.8-9V37.2z"/>
</g>
<g>
	<path d="M23.3,46.4c-0.5,0-0.9-0.4-0.9-0.9v-34c0-0.5,0.4-0.9,0.9-0.9s0.9,0.4,0.9,0.9v34C24.2,45.9,23.8,46.4,23.3,46.4z"/>
</g>
</svg>
