<?xml version="1.0" encoding="utf-8"?>
<!-- Generator: Adobe Illustrator 23.0.2, SVG Export Plug-In . SVG Version: 6.00 Build 0)  -->
<svg version="1.1" id="Слой_1" xmlns="http://www.w3.org/2000/svg" xmlns:xlink="http://www.w3.org/1999/xlink" x="0px" y="0px"
	 viewBox="0 0 45.4 36.8" style="enable-background:new 0 0 45.4 36.8;" xml:space="preserve">
<style type="text/css">
	.st0{clip-path:url(#SVGID_2_);}
</style>
<g>
	<defs>
		<rect id="SVGID_1_" y="0" width="45.4" height="36.8"/>
	</defs>
	<clipPath id="SVGID_2_">
		<use xlink:href="#SVGID_1_"  style="overflow:visible;"/>
	</clipPath>
	<path class="st0" d="M40.1,36.8H5.3c-2.9,0-5.3-2.4-5.3-5.3V11.9C0,9,2.4,6.6,5.3,6.6h5.2c0.3,0,0.7-0.3,0.9-0.7l1.3-4
		C13.1,0.8,14.2,0,15.3,0h14.8c1.1,0,2.2,0.8,2.6,1.8l1.3,4c0.1,0.3,0.6,0.7,0.9,0.7h5.2c3,0,5.3,2.3,5.3,5.3v19.6
		C45.4,34.4,43,36.8,40.1,36.8 M5.3,8.5c-1.9,0-3.4,1.5-3.4,3.4v19.6c0,1.8,1.6,3.4,3.4,3.4h34.8c1.9,0,3.4-1.5,3.4-3.4V11.9
		c0-1.9-1.5-3.4-3.4-3.4h-5.2c-1.1,0-2.2-0.8-2.6-1.9l-1.3-4C30.9,2.3,30.4,2,30.1,2H15.3c-0.3,0-0.7,0.3-0.9,0.6l-1.3,4
		c-0.4,1.1-1.6,1.9-2.6,1.9H5.3z"/>
	<path class="st0" d="M22.7,32.4c-6.5,0-11.8-5.3-11.8-11.8S16.2,8.8,22.7,8.8s11.8,5.3,11.8,11.8S29.2,32.4,22.7,32.4 M22.7,10.7
		c-5.5,0-10,4.5-10,10s4.5,9.9,10,9.9s10-4.5,10-9.9C32.7,15.1,28.2,10.7,22.7,10.7"/>
	<path class="st0" d="M22.7,28.1c-4.1,0-7.4-3.3-7.4-7.4s3.3-7.4,7.4-7.4c4.2,0,7.4,3.3,7.4,7.4C30.1,24.7,26.8,28.1,22.7,28.1
		 M22.7,15c-3.1,0-5.6,2.5-5.6,5.6c0,3,2.6,5.6,5.6,5.6c3.1,0,5.6-2.5,5.6-5.6S25.8,15,22.7,15"/>
	<path class="st0" d="M40.1,13.4c0-0.9-0.7-1.5-1.5-1.5c-0.9,0-1.6,0.6-1.6,1.5c0,0.9,0.7,1.6,1.6,1.6C39.4,15,40.1,14.3,40.1,13.4"
		/>
</g>
</svg>
