<?xml version="1.0" encoding="utf-8"?>
<!-- Generator: Adobe Illustrator 16.0.0, SVG Export Plug-In . SVG Version: 6.00 Build 0)  -->
<!DOCTYPE svg PUBLIC "-//W3C//DTD SVG 1.1//EN" "http://www.w3.org/Graphics/SVG/1.1/DTD/svg11.dtd">
<svg version="1.1" id="Layer_1" xmlns="http://www.w3.org/2000/svg" xmlns:xlink="http://www.w3.org/1999/xlink" x="0px" y="0px"
	 width="48px" height="48px" viewBox="0 0 48 48" enable-background="new 0 0 48 48" xml:space="preserve">
<g>
	<path d="M46.4,30.2H1.6c-0.5,0-0.9-0.4-0.9-0.9S1.1,28.4,1.6,28.4h44.8c0.5,0,0.899,0.399,0.899,0.899S46.9,30.2,46.4,30.2z"/>
</g>
<g>
	<path d="M46.4,36H1.6c-0.5,0-0.9-0.4-0.9-0.9V4c0-0.5,0.4-0.9,0.9-0.9h44.8C46.9,3.1,47.3,3.5,47.3,4v31C47.3,35.5,46.9,36,46.4,36
		z M2.5,34.1h43V4.9h-43V34.1z"/>
</g>
<g>
	<path d="M24,44.9c-0.5,0-0.9-0.4-0.9-0.9v-8.5c0-0.5,0.4-0.9,0.9-0.9s0.9,0.4,0.9,0.9V44C24.9,44.5,24.5,44.9,24,44.9z"/>
</g>
<g>
	<path d="M31.6,44.9H16.1c-0.5,0-0.9-0.4-0.9-0.9s0.4-0.9,0.9-0.9h15.6c0.5,0,0.899,0.4,0.899,0.9C32.5,44.5,32.1,44.9,31.6,44.9z"
		/>
</g>
</svg>
