<svg xmlns="http://www.w3.org/2000/svg" xmlns:xlink="http://www.w3.org/1999/xlink" viewBox="0 0 43.38 43.38"><defs><style>.a{fill:none;}.b{clip-path:url(#a);}.c,.d{fill:#3d568d;}.d{fill-rule:evenodd;}</style><clipPath id="a" transform="translate(0 0)"><rect class="a" width="43.38" height="43.38"/></clipPath></defs><title>instagram-icon</title><g class="b"><path class="c" d="M43.13,12q.12,9.44.25,18.87c-.1.43-.22.85-.28,1.28a12.44,12.44,0,0,1-9.42,10.52c-.75.19-1.51.33-2.27.49l-18.86.25a11.5,11.5,0,0,0-1.13-.26A12.41,12.41,0,0,1,.78,33.84c-.19-.69-.35-1.39-.52-2.09Q.13,22,0,12.21a10.83,10.83,0,0,0,.29-1.12A12.48,12.48,0,0,1,9.7.73C10.45.55,11.21.41,12,.26L31.18,0a7.79,7.79,0,0,0,.94.28A12.39,12.39,0,0,1,42.59,9.55c.21.8.36,1.61.54,2.42m-4,9.4c0-2.86,0-5.72-.13-8.58-.23-5.18-3.68-8.61-8.84-8.63q-8.65,0-17.33.23c-5.26.15-8.66,3.68-8.68,9,0,5.72.07,11.45.23,17.16.16,5.27,3.65,8.7,8.92,8.72,5.72,0,11.44-.06,17.16-.22,5.36-.16,8.71-3.67,8.77-9,0-2.86-.06-5.72-.1-8.58" transform="translate(0 0)"/><path class="d" d="M10.61,21.84A11.09,11.09,0,1,1,21.75,32.78,11.14,11.14,0,0,1,10.61,21.84m11.16,6.91a7.06,7.06,0,1,0-7.14-7,7.12,7.12,0,0,0,7.14,7" transform="translate(0 0)"/><path class="d" d="M32.72,12.77a2.5,2.5,0,0,1-.17-5,2.5,2.5,0,1,1,.17,5" transform="translate(0 0)"/></g></svg>