<svg xmlns="http://www.w3.org/2000/svg" xmlns:xlink="http://www.w3.org/1999/xlink" viewBox="0 0 33.6 27.31"><defs><style>.a{fill:none;}.b{clip-path:url(#a);}.c{fill:#fff;}</style><clipPath id="a" transform="translate(0 0)"><rect class="a" width="33.6" height="27.31"/></clipPath></defs><title>twitter-icon</title><g class="b"><path class="c" d="M33.6,3.23a13.74,13.74,0,0,1-4,1.09,6.94,6.94,0,0,0,3-3.82,13.74,13.74,0,0,1-4.38,1.68A6.89,6.89,0,0,0,16.37,6.89a6.75,6.75,0,0,0,.18,1.57A19.55,19.55,0,0,1,2.34,1.26a6.92,6.92,0,0,0,2.13,9.21A6.87,6.87,0,0,1,1.35,9.6v.09a6.91,6.91,0,0,0,5.53,6.76,7,7,0,0,1-3.11.12,6.87,6.87,0,0,0,6.44,4.78,13.85,13.85,0,0,1-8.56,3A14.92,14.92,0,0,1,0,24.21a19.55,19.55,0,0,0,10.57,3.1c12.68,0,19.61-10.51,19.61-19.62,0-.3,0-.59,0-.89A13.9,13.9,0,0,0,33.6,3.23" transform="translate(0 0)"/></g></svg>