<?xml version="1.0" encoding="utf-8"?><svg xmlns="http://www.w3.org/2000/svg" xmlns:xlink="http://www.w3.org/1999/xlink"><symbol viewBox="0 0 48 48" id="book-icon" xmlns="http://www.w3.org/2000/svg"><path d="M23.3 47c-.1 0-.2 0-.3-.1L1.9 38.7c-.4-.101-.6-.5-.6-.9v-36c0-.3.2-.6.4-.8.3-.2.6-.2.9-.1l20.7 9.4 22.2-9.1c.3-.1.6-.1.9.1.3.2.4.5.4.8v35.5c0 .4-.2.7-.6.9L23.6 47h-.3zM3.1 37.2L23.3 45l21.6-8.1V3.5l-21.3 8.7c-.2.1-.5.1-.7 0l-19.8-9v34z"/><path d="M23.3 46.4c-.5 0-.9-.4-.9-.9v-34c0-.5.4-.9.9-.9s.9.4.9.9v34c0 .4-.4.9-.9.9z"/></symbol><symbol viewBox="0 0 45.4 36.8" id="camera-icon" xmlns="http://www.w3.org/2000/svg"><path class="bst0" d="M40.1 36.8H5.3c-2.9 0-5.3-2.4-5.3-5.3V11.9C0 9 2.4 6.6 5.3 6.6h5.2c.3 0 .7-.3.9-.7l1.3-4C13.1.8 14.2 0 15.3 0h14.8c1.1 0 2.2.8 2.6 1.8l1.3 4c.1.3.6.7.9.7h5.2c3 0 5.3 2.3 5.3 5.3v19.6c0 3-2.4 5.4-5.3 5.4M5.3 8.5c-1.9 0-3.4 1.5-3.4 3.4v19.6c0 1.8 1.6 3.4 3.4 3.4h34.8c1.9 0 3.4-1.5 3.4-3.4V11.9c0-1.9-1.5-3.4-3.4-3.4h-5.2c-1.1 0-2.2-.8-2.6-1.9l-1.3-4c-.1-.3-.6-.6-.9-.6H15.3c-.3 0-.7.3-.9.6l-1.3 4c-.4 1.1-1.6 1.9-2.6 1.9H5.3z"/><path class="bst0" d="M22.7 32.4c-6.5 0-11.8-5.3-11.8-11.8S16.2 8.8 22.7 8.8s11.8 5.3 11.8 11.8-5.3 11.8-11.8 11.8m0-21.7c-5.5 0-10 4.5-10 10s4.5 9.9 10 9.9 10-4.5 10-9.9c0-5.6-4.5-10-10-10"/><path class="bst0" d="M22.7 28.1c-4.1 0-7.4-3.3-7.4-7.4s3.3-7.4 7.4-7.4c4.2 0 7.4 3.3 7.4 7.4 0 4-3.3 7.4-7.4 7.4m0-13.1c-3.1 0-5.6 2.5-5.6 5.6 0 3 2.6 5.6 5.6 5.6 3.1 0 5.6-2.5 5.6-5.6S25.8 15 22.7 15m17.4-1.6c0-.9-.7-1.5-1.5-1.5-.9 0-1.6.6-1.6 1.5s.7 1.6 1.6 1.6c.8 0 1.5-.7 1.5-1.6"/></symbol><symbol viewBox="0 0 48 48" id="desktop-icon" xmlns="http://www.w3.org/2000/svg"><path d="M46.4 30.2H1.6c-.5 0-.9-.4-.9-.9s.4-.9.9-.9h44.8c.5 0 .899.399.899.899s-.399.901-.899.901z"/><path d="M46.4 36H1.6c-.5 0-.9-.4-.9-.9V4c0-.5.4-.9.9-.9h44.8c.5 0 .9.4.9.9v31c0 .5-.4 1-.9 1zM2.5 34.1h43V4.9h-43v29.2z"/><path d="M24 44.9c-.5 0-.9-.4-.9-.9v-8.5c0-.5.4-.9.9-.9s.9.4.9.9V44c0 .5-.4.9-.9.9z"/><path d="M31.6 44.9H16.1c-.5 0-.9-.4-.9-.9s.4-.9.9-.9h15.6c.5 0 .899.4.899.9-.099.5-.499.9-.999.9z"/></symbol><symbol viewBox="0 0 14.6 27.9" id="fb-icon" xmlns="http://www.w3.org/2000/svg"><path class="dst0" d="M14.1 15v-5H9.7V6.4c0-1 1.4-1.8 2.4-1.8h2.5V0H9.5C7.1 0 4.4 2.2 4.4 5.2V10H0v5h4.4v12.9h5.3V15h4.4z"/></symbol><symbol viewBox="0 0 43.38 43.38" id="instagram-icon" xmlns="http://www.w3.org/2000/svg"><g class="eb"><path class="ec" d="M43.13 12q.12 9.44.25 18.87c-.1.43-.22.85-.28 1.28a12.44 12.44 0 01-9.42 10.52c-.75.19-1.51.33-2.27.49l-18.86.25a11.5 11.5 0 00-1.13-.26A12.41 12.41 0 01.78 33.84c-.19-.69-.35-1.39-.52-2.09L0 12.21a10.83 10.83 0 00.29-1.12A12.48 12.48 0 019.7.73c.75-.18 1.51-.32 2.3-.47L31.18 0a7.79 7.79 0 00.94.28 12.39 12.39 0 0110.47 9.27c.21.8.36 1.61.54 2.42m-4 9.4c0-2.86 0-5.72-.13-8.58-.23-5.18-3.68-8.61-8.84-8.63q-8.65 0-17.33.23c-5.26.15-8.66 3.68-8.68 9 0 5.72.07 11.45.23 17.16.16 5.27 3.65 8.7 8.92 8.72 5.72 0 11.44-.06 17.16-.22 5.36-.16 8.71-3.67 8.77-9 0-2.86-.06-5.72-.1-8.58"/><path class="ed" d="M10.61 21.84a11.09 11.09 0 1111.14 10.94 11.14 11.14 0 01-11.14-10.94m11.16 6.91a7.06 7.06 0 10-7.14-7 7.12 7.12 0 007.14 7m10.95-15.98a2.501 2.501 0 01-.17-5 2.501 2.501 0 11.17 5"/></g></symbol><symbol viewBox="0 0 33.6 27.31" id="twitter-icon" xmlns="http://www.w3.org/2000/svg"><g class="fb"><path class="fc" d="M33.6 3.23a13.74 13.74 0 01-4 1.09 6.94 6.94 0 003-3.82 13.74 13.74 0 01-4.38 1.68 6.89 6.89 0 00-11.85 4.71 6.75 6.75 0 00.18 1.57 19.55 19.55 0 01-14.21-7.2 6.92 6.92 0 002.13 9.21 6.87 6.87 0 01-3.12-.87v.09a6.91 6.91 0 005.53 6.76 7 7 0 01-3.11.12 6.87 6.87 0 006.44 4.78 13.85 13.85 0 01-8.56 3A14.92 14.92 0 010 24.21a19.55 19.55 0 0010.57 3.1c12.68 0 19.61-10.51 19.61-19.62V6.8a13.9 13.9 0 003.42-3.57"/></g></symbol></svg>