<svg xmlns="http://www.w3.org/2000/svg" xmlns:xlink="http://www.w3.org/1999/xlink" viewBox="0 0 91.2 111"><style>.st0{clip-path:url(#SVGID_2_);fill:#a88d55}</style><defs><path id="SVGID_1_" d="M0 0h91.2v111H0z"/></defs><clipPath id="SVGID_2_"><use xlink:href="#SVGID_1_" overflow="visible"/></clipPath><path class="st0" d="M45.6 10.1L14.9 27.3l17.5 26c.3-.2.6-.4 1-.7 1-.8 2.3-1.9 4.7-1.9 2.4 0 3.7 1 4.7 1.9.9.7 1.5 1.2 2.8 1.2 1.3 0 1.9-.5 2.8-1.2 1-.8 2.3-1.9 4.7-1.9 2.4 0 3.7 1 4.7 1.9.3.3.6.5 1 .7l17.5-26-30.7-17.2zm11.7 36.3c-1.2-.4-2.6-.8-4.2-.8-3.8 0-6.2 1.6-7.5 2.7-1.4-1.1-3.7-2.7-7.5-2.7-1.7 0-3.1.3-4.2.8L22.1 29l23.5-13.1L69.1 29 57.3 46.4zM55.9 55c-.9-.7-1.5-1.2-2.8-1.2-1.3 0-1.9.5-2.8 1.2-1 .8-2.3 1.9-4.7 1.9-2.4 0-3.7-1-4.7-1.9-.9-.7-1.5-1.2-2.8-1.2-1.3 0-1.9.5-2.8 1.2-.3.3-.7.6-1.2.9l11.5 17 11.5-17c-.5-.4-.9-.7-1.2-.9"/><path class="st0" d="M45.6 0L20.7 13.9l3.1 4.7L45.6 6.4l21.7 12.2 3.2-4.7zM8.7 94.9v4.9H5.4v-5l-5.4-9h3.4L7.2 92l3.7-6.2h3.2zm20.1 1.9h-6.5l-1.2 3h-3.3l6.2-14h3.2l6.3 14h-3.4l-1.3-3zm-1-2.4L25.6 89l-2.2 5.4h4.4zm11-1.6c0-4.2 3.2-7.2 7.6-7.2 2.4 0 4.4.9 5.8 2.5L50.1 90c-.9-1.1-2.1-1.6-3.5-1.6-2.6 0-4.5 1.8-4.5 4.5 0 2.6 1.9 4.5 4.5 4.5 1.4 0 2.6-.6 3.5-1.7l2.1 1.9c-1.3 1.6-3.3 2.5-5.8 2.5-4.3 0-7.6-3.1-7.6-7.3m33.4-7v14H69v-5.7h-6.4v5.7h-3.2v-14h3.2v5.5H69v-5.5zm11.2 2.7H79v-2.7h12.2v2.7h-4.5v11.3h-3.3zM1.9 109.4l-.7 1.6H0l3-6.8h1.2l3 6.8H5.9l-.7-1.5H1.9zm1.7-4l-1.3 3h2.6l-1.3-3zm9.7-1.3c2 0 3.5 1.4 3.5 3.4s-1.5 3.4-3.6 3.4h-2.8v-6.8h2.9zm-1.6 5.8h1.7c1.3 0 2.3-1 2.3-2.4s-1-2.4-2.4-2.4h-1.6v4.8zm10.6 1.1l-2.7-6.9h1.2l2.1 5.6 2.1-5.6h1.2l-2.7 6.9zm8.4-5.8v1.8h3.4v1h-3.4v1.9h3.9v1.1h-5v-6.9h4.9v1.1zm10.8 3.7h-1.9v2.1h-1.2v-6.8h2.8c1.7 0 2.8.8 2.8 2.3 0 1.1-.5 1.9-1.4 2.2l1.5 2.3h-1.3l-1.3-2.1zm-.3-1c1.1 0 1.7-.4 1.7-1.4 0-.9-.6-1.3-1.7-1.3h-1.6v2.7h1.6zm9.2-2.7v5.8h-1.1v-5.8h-2.2v-1.1h5.5v1.1zm5.6-1.1h1.2v6.8H56zm10 .7l-.5 1c-.7-.4-1.5-.6-2-.6-.7 0-1.1.3-1.1.7 0 1.5 3.7.7 3.7 3.1 0 1.2-1.1 2-2.6 2-1.1 0-2.1-.4-2.8-1.1l.5-1c.7.6 1.6 1 2.3 1 .8 0 1.3-.3 1.3-.8 0-1.5-3.7-.7-3.7-3.1 0-1.2 1-1.9 2.5-1.9.9 0 1.8.3 2.4.7m3.9-.7h1.2v6.8h-1.2zm10.2 6.9l-3.7-4.9v4.9h-1.1v-6.9h1.1l3.7 4.9v-4.9h1.1v6.9zm8.4-2.8h1.6v1.3c-.5.3-1.1.5-1.6.5-1.4 0-2.5-1.1-2.5-2.4 0-1.4 1.1-2.4 2.5-2.4.7 0 1.4.3 2 .8l.7-.8c-.7-.6-1.6-1-2.6-1-2.1 0-3.7 1.5-3.7 3.4s1.6 3.5 3.6 3.5c.9 0 2-.4 2.7-.9v-2.9h-2.6v.9z"/></svg>